HIERARCHY
ROOT Hips
{
	OFFSET 0.000000 0.000000 0.000000
	CHANNELS 6 Xposition Yposition Zposition Zrotation Yrotation Xrotation 
	JOINT LHipJoint
	{
		OFFSET 0.000000 0.000000 0.000000
		CHANNELS 3 Zrotation Yrotation Xrotation
		JOINT LeftUpLeg
		{
			OFFSET 1.363060 -1.794630 0.839290
			CHANNELS 3 Zrotation Yrotation Xrotation
			JOINT LeftLeg
			{
				OFFSET 2.448110 -6.726130 0.000000
				CHANNELS 3 Zrotation Yrotation Xrotation
				JOINT LeftFoot
				{
					OFFSET 2.562200 -7.039590 0.000000
					CHANNELS 3 Zrotation Yrotation Xrotation
					JOINT LeftToeBase
					{
						OFFSET 0.157640 -0.433110 2.322550
						CHANNELS 3 Zrotation Yrotation Xrotation
						End Site
						{
							OFFSET 0.000000 0.000000 0.000000
						}
					}
				}
			}
		}
	}
	JOINT RHipJoint
	{
		OFFSET 0.000000 0.000000 0.000000
		CHANNELS 3 Zrotation Yrotation Xrotation
		JOINT RightUpLeg
		{
			OFFSET -1.305520 -1.794630 0.839290
			CHANNELS 3 Zrotation Yrotation Xrotation
			JOINT RightLeg
			{
				OFFSET -2.542530 -6.985550 0.000000
				CHANNELS 3 Zrotation Yrotation Xrotation
				JOINT RightFoot
				{
					OFFSET -2.568260 -7.056230 0.000000
					CHANNELS 3 Zrotation Yrotation Xrotation
					JOINT RightToeBase
					{
						OFFSET -0.164730 -0.452590 2.363150
						CHANNELS 3 Zrotation Yrotation Xrotation
						End Site
						{
							OFFSET 0.000000 0.000000 0.000000
						}
					}
				}
			}
		}
	}
	JOINT LowerBack
	{
		OFFSET 0.000000 0.000000 0.000000
		CHANNELS 3 Zrotation Yrotation Xrotation
		JOINT Spine
		{
			OFFSET 0.028270 2.035590 -0.193380
			CHANNELS 3 Zrotation Yrotation Xrotation
			JOINT Spine1
			{
				OFFSET 0.056720 2.048850 -0.042750
				CHANNELS 3 Zrotation Yrotation Xrotation
				JOINT Neck
				{
					OFFSET 0.000000 0.000000 0.000000
					CHANNELS 3 Zrotation Yrotation Xrotation
					JOINT Neck1
					{
						OFFSET -0.054170 1.746240 0.172020
						CHANNELS 3 Zrotation Yrotation Xrotation
						JOINT Head
						{
							OFFSET 0.104070 1.761360 -0.123970
							CHANNELS 3 Zrotation Yrotation Xrotation
							End Site
							{
								OFFSET 0.000000 0.000000 0.000000
							}
						}
					}
				}
				JOINT LeftShoulder
				{
					OFFSET 0.000000 0.000000 0.000000
					CHANNELS 3 Zrotation Yrotation Xrotation
					JOINT LeftArm
					{
						OFFSET 3.362410 1.200890 -0.311210
						CHANNELS 3 Zrotation Yrotation Xrotation
						JOINT LeftForeArm
						{
							OFFSET 4.983000 -0.000000 -0.000000
							CHANNELS 3 Zrotation Yrotation Xrotation
							JOINT LeftHand
							{
								OFFSET 3.483560 -0.000000 -0.000000
								CHANNELS 3 Zrotation Yrotation Xrotation
								JOINT LeftFingerBase
								{
									OFFSET 0.000000 0.000000 0.000000
									CHANNELS 3 Zrotation Yrotation Xrotation
									JOINT LeftHandIndex1
									{
										OFFSET 0.715260 -0.000000 -0.000000
										CHANNELS 3 Zrotation Yrotation Xrotation
										End Site
										{
											OFFSET 0.000000 0.000000 0.000000
										}
									}
								}
								JOINT LThumb
								{
									OFFSET 0.000000 0.000000 0.000000
									CHANNELS 3 Zrotation Yrotation Xrotation
									End Site
									{
										OFFSET 0.000000 0.000000 0.000000
									}
								}
							}
						}
					}
				}
				JOINT RightShoulder
				{
					OFFSET 0.000000 0.000000 0.000000
					CHANNELS 3 Zrotation Yrotation Xrotation
					JOINT RightArm
					{
						OFFSET -3.136600 1.374050 -0.404650
						CHANNELS 3 Zrotation Yrotation Xrotation
						JOINT RightForeArm
						{
							OFFSET -5.241900 -0.000000 -0.000000
							CHANNELS 3 Zrotation Yrotation Xrotation
							JOINT RightHand
							{
								OFFSET -3.444170 -0.000000 -0.000000
								CHANNELS 3 Zrotation Yrotation Xrotation
								JOINT RightFingerBase
								{
									OFFSET 0.000000 0.000000 0.000000
									CHANNELS 3 Zrotation Yrotation Xrotation
									JOINT RightHandIndex1
									{
										OFFSET -0.622530 -0.000000 -0.000000
										CHANNELS 3 Zrotation Yrotation Xrotation
										End Site
										{
											OFFSET 0.000000 0.000000 0.000000
										}
									}
								}
								JOINT RThumb
								{
									OFFSET 0.000000 0.000000 0.000000
									CHANNELS 3 Zrotation Yrotation Xrotation
									End Site
									{
										OFFSET 0.000000 0.000000 0.000000
									}
								}
							}
						}
					}
				}
			}
		}
	}
}
MOTION
Frames: 7
Frame Time: 0.008333
3.591129 16.682486 -0.906857 -128.653674 83.590469 -128.439384 -10.426363 1.247878 0.532532 -23.176163 15.232640 -30.121842 -2.609327 -0.309524 19.173101 3.566388 15.554706 -19.989788 -3.512000 0.000000 -2.938400 9.911982 -4.306744 -2.387207 -10.939772 -23.708903 7.972257 -0.092118 -2.253907 31.653765 -0.962738 13.459320 37.325221 9.657501 0.000000 -84.873199 0.899844 1.903765 -0.332900 -0.172845 1.880644 -2.316683 -3.859032 1.847458 3.058452 8.055341 -13.943831 -11.175315 -0.535455 0.010682 -0.941972 0.000000 0.000000 0.000000 -5.036414 28.409442 2.447260 -86.806543 32.995048 -5.995265 -4.363253 -15.429952 -0.044894 -10.630522 16.997094 -1.607034 -0.036459 -0.186259 0.000000 0.000000 0.000000 0.000000 0.000000 0.000000 0.000000 5.528701 -7.913962 0.575801 33.123970 9.750367 8.315911 1.046747 56.266192 0.010691 4.392937 1.414627 0.060096 -0.017915 -0.140292 0.000000 0.000000 0.000000 0.000000 0.000000 0.000000 0.000000 
3.826858 16.625484 -0.968751 -127.812666 83.509228 -127.945953 -10.459437 1.288819 0.425916 -22.915638 15.333150 -29.783901 -2.564961 -0.137054 21.081875 3.570998 15.540638 -20.730857 176.239900 0.000000 -0.837901 10.041646 -4.130348 -2.535263 -11.990431 -24.424458 7.210554 -0.199675 -2.292840 34.337170 -1.144757 12.811953 38.356706 9.451600 0.000001 -81.846800 0.805854 1.795420 -0.086220 -0.200657 1.786903 -2.284900 -3.926829 1.757295 3.001693 8.218544 -13.883008 -11.194813 -0.559829 0.009275 -0.949597 0.000000 0.000000 0.000000 -5.128497 28.346016 2.444580 -86.863091 32.878864 -4.687155 -4.335209 -16.253424 -0.045392 -11.415665 17.147185 -1.743254 -0.029157 -0.187117 0.000000 0.000000 0.000000 0.000000 0.000000 0.000000 0.000000 5.761554 -7.846103 0.581378 33.300917 9.701997 8.171185 1.058405 56.256400 0.010703 4.379825 1.461804 0.061699 -0.017123 -0.140715 0.000000 0.000000 0.000000 0.000000 0.000000 0.000000 0.000000 
4.059757 16.569285 -1.029728 -127.469546 83.447939 -127.910995 -10.471780 1.354425 0.304315 -22.767919 15.549874 -29.556235 -2.540751 0.044063 23.058559 3.551315 15.404165 -21.439901 176.028900 0.000000 -4.157499 10.174434 -3.936446 -2.668078 -12.954819 -25.047953 6.305476 -0.309214 -2.345221 37.049629 -1.321243 11.275321 38.692852 8.510000 -0.000001 -78.542999 0.680986 1.660860 0.153019 -0.232681 1.668531 -2.258102 -3.994259 1.641718 2.933298 8.363935 -13.796998 -11.208927 -0.591814 0.007144 -0.955332 0.000000 0.000000 0.000000 -5.258712 28.253721 2.429931 -86.751761 32.632667 -3.213909 -4.299451 -17.080719 -0.045404 -12.158472 17.082291 -1.851568 -0.021954 -0.186399 0.000000 0.000000 0.000000 0.000000 0.000000 0.000000 0.000000 5.987901 -7.755722 0.580859 33.620138 9.618313 8.030478 1.073293 56.238665 0.010640 4.314904 1.521049 0.063106 -0.015238 -0.141367 0.000000 0.000000 0.000000 0.000000 0.000000 0.000000 0.000000 
4.289354 16.515486 -1.090382 -127.654278 83.396557 -128.348355 -10.467092 1.437132 0.180302 -22.707613 15.804793 -29.404198 -2.528946 0.226513 25.036454 3.516396 15.182746 -22.117479 175.852101 0.000000 -6.873700 10.305443 -3.732945 -2.779276 -13.765729 -25.518757 5.242386 -0.424218 -2.418086 39.763143 -1.488324 8.960857 38.256038 6.933401 0.000000 -75.155500 0.534482 1.506007 0.369990 -0.267406 1.530286 -2.238423 -4.060293 1.505383 2.855712 8.485232 -13.696861 -11.216854 -0.630979 0.004294 -0.958854 0.000000 0.000000 0.000000 -5.413651 28.122551 2.404085 -86.477892 32.234192 -1.651859 -4.254019 -17.866471 -0.044836 -12.760689 16.821428 -1.914974 -0.015489 -0.184059 0.000000 0.000000 0.000000 0.000000 0.000000 0.000000 0.000000 6.201220 -7.653585 0.573633 34.089530 9.478951 7.882381 1.091487 56.206292 0.010476 4.178563 1.595934 0.063820 -0.011976 -0.142379 0.000000 0.000000 0.000000 0.000000 0.000000 0.000000 0.000000 
4.515301 16.465647 -1.151561 -128.342953 83.344579 -129.219151 -10.450559 1.528300 0.065902 -22.709725 16.022406 -29.293149 -2.522951 0.402882 26.954420 3.477889 14.921538 -22.786248 175.695500 -0.000000 -9.066200 10.429031 -3.529544 -2.861343 -14.356974 -25.777303 4.006051 -0.545111 -2.514948 42.444201 -1.641368 6.092687 37.019506 4.941800 0.000000 -71.739400 0.380497 1.338985 0.548868 -0.302398 1.378827 -2.228136 -4.123636 1.354852 2.771991 8.576119 -13.591961 -11.217993 -0.676764 0.000740 -0.959892 0.000000 0.000000 0.000000 -5.582204 27.942192 2.368895 -86.055051 31.656727 -0.123922 -4.201387 -18.550795 -0.043699 -13.155983 16.407191 -1.926272 -0.010452 -0.180062 -0.000000 0.000000 0.000000 0.000000 0.000000 0.000000 0.000000 6.393431 -7.547173 0.559384 34.714144 9.259350 7.715478 1.113097 56.153883 0.010189 3.956389 1.690452 0.063739 -0.007144 -0.143856 0.000000 0.000000 0.000000 0.000000 0.000000 0.000000 0.000000 
4.737267 16.421059 -1.213713 -129.534635 83.285634 -130.518936 -10.424754 1.621593 -0.032736 -22.759504 16.145758 -29.168396 -2.517797 0.566112 28.742020 3.445014 14.665113 -23.448565 175.549000 0.000000 -10.693100 10.544283 -3.333411 -2.910813 -14.699171 -25.782732 2.605830 -0.669553 -2.635270 45.045522 -1.776249 2.959718 35.027104 2.819500 0.000000 -68.372900 0.223412 1.166951 0.684780 -0.337245 1.220862 -2.227330 -4.183820 1.196891 2.685348 8.635757 -13.494881 -11.212534 -0.728226 -0.003434 -0.958531 0.000000 0.000000 0.000000 -5.740225 27.705027 2.325987 -85.507052 30.888810 1.285263 -4.143137 -19.091752 -0.041963 -13.279482 15.848233 -1.877854 -0.007379 -0.174421 -0.000000 0.000000 0.000000 0.000000 0.000000 0.000000 0.000000 6.563285 -7.449388 0.538507 35.492418 8.946955 7.525853 1.138268 56.071920 0.009763 3.637489 1.811326 0.062467 -0.000640 -0.145875 0.000000 0.000000 0.000000 0.000000 0.000000 0.000000 0.000000 
4.955093 16.382766 -1.277579 -131.139638 83.212484 -132.156611 -10.394699 1.710743 -0.111067 -22.839389 16.137467 -28.986718 -2.510805 0.710316 30.341685 3.426132 14.452236 -24.117742 175.398200 0.000000 -11.856300 10.647902 -3.151408 -2.922632 -14.770528 -25.501676 1.054815 -0.793176 -2.773808 47.516020 -1.891098 -0.167589 32.392537 0.827200 -0.000000 -65.110800 0.074217 0.995927 0.771513 -0.369731 1.061454 -2.236232 -4.238936 1.036548 2.601961 8.662992 -13.410597 -11.202557 -0.784607 -0.008144 -0.955319 0.000000 0.000000 0.000000 -5.854898 27.388772 2.288234 -84.878031 29.903649 2.352531 -4.101229 -19.518414 -0.040576 -13.298535 15.541072 -1.843335 -0.007116 -0.168289 -0.000000 0.000000 0.000000 0.000000 0.000000 0.000000 0.000000 6.706825 -7.357150 0.511015 36.418322 8.525915 7.306616 1.166975 55.953790 0.009196 3.222167 1.964311 0.059602 0.007441 -0.148482 0.000000 0.000000 0.000000 0.000000 0.000000 0.000000 0.000000 
